Coordinates
version=1
nRows=17
nColumns=34
inDegrees=yes

Units are S.I. units (second, meters, Newtons, ...)
If the header above contains a line with 'inDegrees', this indicates whether rotational values are in degrees (yes) or radians (no).

endheader
time	pelvis_tilt	pelvis_list	pelvis_rotation	pelvis_tx	pelvis_ty	pelvis_tz	hip_flexion_r	hip_adduction_r	hip_rotation_r	knee_angle_r	ankle_angle_r	subtalar_angle_r	mtp_angle_r	hip_flexion_l	hip_adduction_l	hip_rotation_l	knee_angle_l	ankle_angle_l	subtalar_angle_l	mtp_angle_l	lumbar_extension	lumbar_bending	lumbar_rotation	arm_flex_r	arm_add_r	arm_rot_r	elbow_flex_r	pro_sup_r	arm_flex_l	arm_add_l	arm_rot_l	elbow_flex_l	pro_sup_l
      3.48333330	    -13.14197595	     -0.55637720	     -3.31619025	      1.44549255	      0.76180476	     -0.11336224	     44.33502749	     -9.06605293	     -4.10611620	     50.61813752	     21.25006945	     -3.87780186	      0.00000000	     43.19397852	    -10.92408072	     -4.83872687	     53.24736733	     25.10721338	     -1.03573594	      0.00000000	    -18.43033511	      3.12457557	      1.87174674	     34.46689456	     -1.86179746	     26.27055660	     96.71631547	     84.31515527	     37.21677547	      1.69732337	     26.48122113	     91.81966754	     86.04985201
      3.50000000	    -12.83133895	     -0.61708804	     -3.24602423	      1.44660037	      0.75459124	     -0.11320260	     45.23651709	     -9.31189337	     -3.96184344	     53.13616403	     22.52852471	     -3.59698599	      0.00000000	     44.17056387	    -11.26090260	     -4.62352622	     55.75335357	     26.40864061	     -0.52838133	      0.00000000	    -19.05640595	      3.26948906	      1.94310219	     35.24962519	     -1.63915027	     27.10330192	     99.42772543	     84.48360231	     38.70115340	      2.00008445	     27.23727717	     94.73455522	     85.65283635
      3.51666670	    -12.49846537	     -0.64262033	     -3.15757741	      1.44751286	      0.74697153	     -0.11354163	     46.06670928	     -9.59047764	     -3.76181474	     55.67896091	     23.94247437	     -3.29126273	      0.00000000	     45.09545723	    -11.52800723	     -4.38100942	     58.31868540	     27.79182869	     -0.08332447	      0.00000000	    -19.54492352	      3.49158828	      2.17247459	     36.18799168	     -1.56991812	     28.12161677	    101.96391346	     84.76449518	     40.95248411	      1.92779557	     28.52251801	     97.39673562	     85.38718493
      3.53333330	    -12.17731851	     -0.61156432	     -3.02366309	      1.44803897	      0.73919848	     -0.11380425	     46.89107327	     -9.92226937	     -3.49008416	     58.23994714	     25.43630742	     -2.98251423	      0.00000000	     46.01094525	    -11.69623089	     -4.12327541	     60.88213444	     29.16602850	      0.28621455	      0.00000000	    -19.90799848	      3.71087594	      2.54157923	     37.43435286	     -1.73697500	     28.74542847	    104.33724668	     85.16032488	     43.77114072	      1.76356220	     29.40446558	     99.67528921	     85.20277574
      3.55000000	    -11.87117377	     -0.54660525	     -2.82228436	      1.44864426	      0.73150287	     -0.11347817	     47.68347001	    -10.28997555	     -3.18596107	     60.76368989	     26.95752309	     -2.68796226	      0.00000000	     46.92303025	    -11.79272128	     -3.83815973	     63.38069830	     30.45769648	      0.62807728	      0.00000000	    -20.17488786	      3.90942945	      2.99902973	     38.91638254	     -2.00396655	     28.79021428	    106.76335529	     85.69041661	     46.90554666	      1.51028808	     29.15583115	    101.40510636	     85.05532621
      3.56666670	    -11.60200110	     -0.44289429	     -2.56339105	      1.44951035	      0.72504183	     -0.11276856	     48.37034452	    -10.64491085	     -2.83445535	     63.06795602	     28.41223666	     -2.43692313	      0.00000000	     47.76287557	    -11.78533852	     -3.51020476	     65.64016548	     31.57774088	      0.97650946	      0.00000000	    -20.33325973	      4.03836295	      3.34142112	     40.60878215	     -2.11251135	     28.48573890	    109.00376460	     86.28845366	     50.03470276	      1.04410915	     27.90510426	    102.35127172	     84.93570568
      3.58333330	    -11.26757177	     -0.37121233	     -2.31014858	      1.45061325	      0.71963672	     -0.11203068	     48.82132443	    -10.89567683	     -2.52768921	     65.08440491	     29.61571676	     -2.35553143	      0.00000000	     48.32144337	    -11.78629935	     -3.21120388	     67.47943589	     32.32302616	      1.10203294	      0.00000000	    -20.75787521	      3.93087749	      3.91189187	     42.26527762	     -2.53305402	     26.91352559	    111.65655283	     93.79245754	     53.15956075	      0.88677029	     26.65980076	    102.82686706	     84.59697423
      3.60000000	    -11.26734213	     -0.32523522	     -2.13130154	      1.45223222	      0.71412374	     -0.11134851	     49.49484369	    -10.94124425	     -2.12926727	     66.79312022	     30.71917736	     -2.42010372	      0.00000000	     49.09649014	    -11.77770939	     -2.85288029	     69.07474969	     33.03732273	      1.13966047	      0.00000000	    -20.51882429	      3.90872643	      3.87810049	     44.14124711	     -2.63493544	     25.95874950	    112.11620529	     93.83016534	     55.66980089	      0.32057583	     25.12704668	    103.17981360	     84.52977524
      3.61666670	    -10.97095331	     -0.20400772	     -1.79803769	      1.45470124	      0.70952898	     -0.11099836	     49.68017063	    -11.31067811	     -2.01774339	     68.37602212	     32.32971537	     -1.43945377	      0.00000000	     49.33823539	    -11.60313772	     -2.60448077	     70.36455640	     34.03144797	      1.82103889	      0.00000000	    -20.77845410	      3.95367777	      3.44303877	     45.92275211	     -2.01935467	     23.80933575	    113.39071655	     94.12746001	     57.28533570	      0.15242158	     22.61592535	    104.88239687	     84.44308783
      3.63333330	    -10.89607066	     -0.15677054	     -1.49377867	      1.45785334	      0.70555648	     -0.11074299	     49.86809320	    -11.50924737	     -1.89278917	     69.58253884	     33.41201828	     -1.25766675	      0.00000000	     49.65503859	    -11.39217949	     -2.16457966	     71.39103284	     34.68912743	      1.88225817	      0.00000000	    -20.49509094	      4.03203324	      3.17574563	     47.60721525	     -1.71744142	     21.66232059	    114.01878553	     94.46770087	     58.75882498	      0.10495303	     21.35197425	    106.50718845	     84.46813438
      3.65000000	    -10.93697229	     -0.11832450	     -1.18829823	      1.46126181	      0.70381897	     -0.11090515	     49.87651613	    -11.71653914	     -1.90214794	     70.34037692	     34.26981235	     -1.09601675	      0.00000000	     49.80781849	    -11.09377206	     -1.73028038	     71.99816689	     35.22601889	      1.85805318	      0.00000000	    -19.92585533	      4.10767014	      2.94066049	     48.94099477	     -1.38868083	     19.69704111	    114.68991056	     94.84525343	     60.06782991	      0.08181832	     20.89974749	    108.03003631	     84.58161289
      3.66666670	    -11.05685047	     -0.09485436	     -0.96050115	      1.46482781	      0.70468789	     -0.11132499	     49.65604397	    -11.84662179	     -1.95019293	     70.52819284	     34.80686531	     -0.89905469	      0.00000000	     49.73020009	    -10.70814833	     -1.30574492	     72.14287181	     35.53528542	      1.66301875	      0.00000000	    -19.22145655	      4.15472916	      2.72322862	     49.99874276	     -1.03629523	     18.26032139	    115.50901939	     95.23771634	     61.40328636	     -0.00073276	     20.95678306	    109.24887419	     84.75345876
      3.68333330	    -11.16255134	     -0.02972365	     -0.89058057	      1.46908398	      0.70802121	     -0.11150982	     49.09955798	    -11.95352948	     -2.06171724	     70.09102323	     35.03109436	     -0.56039716	      0.00000000	     49.15289281	    -10.27755606	     -1.04655225	     71.59880108	     35.57300381	      1.28234926	      0.00000000	    -18.49033462	      3.88548537	      3.09876711	     50.44492047	     -1.27400712	     16.16051609	    117.42407552	    101.16570553	     62.96213884	      0.20660562	     21.75368692	    109.35655473	     87.07336617
      3.70000000	    -11.37523126	      0.02657143	     -0.81298356	      1.47390406	      0.71310217	     -0.11141945	     48.31689637	    -12.09141507	     -2.36030926	     69.04923138	     34.88692825	     -0.26214288	      0.00000000	     48.33834304	     -9.77055568	     -0.79009725	     70.40520308	     35.26473737	      0.84873433	      0.00000000	    -17.57736482	      3.92348803	      2.86456983	     51.16937188	     -0.81731596	     15.78352702	    118.35840278	    101.44688518	     64.09982893	     -0.27753474	     21.79665501	    110.24267410	     87.24949378
      3.71666670	    -11.54418288	      0.05681186	     -0.79775892	      1.47935849	      0.71987929	     -0.11104370	     47.11767196	    -12.14771408	     -2.77677674	     67.36835708	     34.41285945	      0.10682054	      0.00000000	     47.12317583	     -9.30004559	     -0.54449719	     68.61684440	     34.71943098	      0.27857791	      0.00000000	    -16.61621297	      3.85634760	      2.85500584	     51.69695425	     -0.66197092	     15.44337858	    119.42069923	    101.85095375	     65.31720703	     -0.64326269	     22.15263896	    110.83652477	     87.52144556
      3.73333330	    -11.66249952	      0.08268470	     -0.80543847	      1.48568111	      0.72806365	     -0.11054602	     45.59068607	    -12.14206572	     -3.27178925	     65.20192101	     33.69718821	      0.50106770	      0.00000000	     45.58668093	     -8.87655082	     -0.32083737	     66.38110192	     33.95366793	     -0.39564594	      0.00000000	    -15.64620769	      3.67530295	      3.07610407	     52.16033803	     -0.71397999	     15.00606935	    120.63600524	    102.49358027	     66.93002403	     -0.85619725	     22.80577314	    111.30779727	     87.98133193
      3.75000000	    -11.89077856	      0.04523964	     -0.72904041	      1.49417296	      0.73673725	     -0.11010002	     43.81599850	    -12.13441403	     -4.01852959	     62.62971656	     32.95121968	      0.80299631	      0.00000000	     43.90406786	     -8.53799752	     -0.07102868	     63.80877383	     33.07954372	     -0.93210729	      0.00000000	    -14.22502571	      3.70940586	      3.34127570	     52.52953498	     -0.65466461	     14.72122883	    121.68584987	    102.87178876	     68.21939757	     -1.11124914	     23.45473700	    111.84441039	     88.30465245
